<svg width="128" height="128" viewBox="0 0 128 128" fill="none" xmlns="http://www.w3.org/2000/svg">
<g clip-path="url(#clip0_719_1233)">
<path d="M80.0771 0.5C84.3742 0.50004 88.2577 2.20855 91.0938 4.98242L91.3711 5.25977L122.544 36.2109L122.55 36.2168C125.481 39.0372 127.314 42.9788 127.336 47.3418C127.337 47.4735 127.376 47.6022 127.447 47.7129C127.39 52.7069 124.966 57.1392 121.232 59.9521C120.252 60.6905 119.604 61.8079 119.415 62.9609C119.225 64.119 119.496 65.3499 120.407 66.2559L122.683 68.5166L122.688 68.5225C125.637 71.3596 127.475 75.3316 127.475 79.7256C127.475 84.7935 125.036 89.2987 121.257 92.1455C120.277 92.8838 119.629 94.0012 119.44 95.1543C119.251 96.3124 119.521 97.5432 120.433 98.4492L122.707 100.71L122.713 100.716C125.662 103.553 127.5 107.525 127.5 111.919C127.5 120.519 120.474 127.5 111.804 127.5H47.7852C43.3496 127.5 39.3541 125.68 36.4971 122.746L36.4912 122.74L5.31738 91.7891L5.31152 91.7832C2.36276 88.9461 0.525391 84.9741 0.525391 80.5801C0.525479 75.5122 2.96445 71.007 6.74316 68.1602C7.72309 67.4218 8.37066 66.3044 8.55957 65.1514C8.74926 63.9933 8.47883 62.7624 7.56738 61.8564L5.29297 59.5957L5.28711 59.5898L5.01367 59.3203C2.22492 56.5038 0.5 52.6435 0.5 48.3867C0.500057 43.3257 2.93231 38.8265 6.71191 35.9902C7.69591 35.2519 8.34831 34.1318 8.54004 32.9756C8.73257 31.8143 8.464 30.5787 7.5498 29.6699L5.29297 27.4268L5.28711 27.4209L5.01367 27.1523C2.22484 24.3359 0.500092 20.4755 0.5 16.2188C0.5 7.75402 7.30818 0.851263 15.7988 0.510742L16.2041 0.5H80.0771Z" fill="#BFBDB3" stroke="#2C2B27"/>
<path d="M106.845 104.566C108.139 104.291 109.49 104.486 110.652 105.117C111.814 105.748 112.713 106.775 113.187 108.01L110.904 108.885C110.638 108.193 110.135 107.619 109.484 107.266C108.833 106.912 108.078 106.803 107.353 106.957C106.629 107.111 105.983 107.518 105.533 108.105C105.082 108.693 104.854 109.423 104.892 110.163C104.931 110.903 105.233 111.605 105.743 112.142C106.253 112.679 106.938 113.017 107.674 113.095C108.411 113.172 109.152 112.983 109.762 112.563C110.372 112.143 110.814 111.52 111.006 110.805L113.367 111.439C113.024 112.716 112.237 113.83 111.147 114.579C110.057 115.328 108.734 115.663 107.418 115.525C106.103 115.387 104.88 114.783 103.97 113.824C103.06 112.864 102.522 111.612 102.453 110.291C102.384 108.97 102.787 107.668 103.592 106.619C104.398 105.569 105.552 104.841 106.845 104.566Z" fill="#2C2B27"/>
<path fill-rule="evenodd" clip-rule="evenodd" d="M108 100C113.523 100 118 104.477 118 110C118 115.523 113.523 120 108 120C102.477 120 98 115.523 98 110C98 104.477 102.477 100 108 100ZM108 102.201C103.692 102.201 100.201 105.692 100.201 110C100.201 114.308 103.692 117.799 108 117.799C112.308 117.799 115.799 114.308 115.799 110C115.799 105.692 112.308 102.201 108 102.201Z" fill="#2C2B27"/>
<path d="M57.0525 18.1623L56.7089 19.1212C56.4539 19.8327 56.7245 20.6266 57.36 21.0318L78.1347 34.2807C79.2963 35.0215 80 36.3076 80 37.6897V52.033C80 53.8758 78.7579 55.4849 76.981 55.9438L49.2298 63.1111L65.7002 72.6438C66.1984 72.9322 66.5054 73.4658 66.5054 74.0433V78.3838C66.5054 79.4601 65.4771 80.2354 64.4482 79.9347L25.6613 68.6006C23.9447 68.099 22.7642 66.519 22.7642 64.7233V54.8015C22.7642 53.0654 23.8688 51.5237 25.5077 50.9724L40.7849 45.8337C41.0781 45.7351 41.3935 45.7235 41.6931 45.8003L67.3605 52.3795L48.1184 43.6595C48.007 43.609 47.8901 43.5714 47.7702 43.5475L33.4253 40.6872L20.7555 37.1101C20.3042 36.9826 19.9307 36.6637 19.7328 36.2367L16.1502 28.5058C15.867 27.8946 15.9915 27.1709 16.4626 26.6906L17.81 25.3168C18.0773 25.0442 18.4323 24.8758 18.8116 24.8416L24.8666 24.2951C24.9099 24.2911 24.9522 24.28 24.9919 24.2623L42.2555 16.5356C42.4461 16.4504 42.6513 16.4031 42.8598 16.3966L55.4893 16.0008C56.6238 15.9653 57.4369 17.0896 57.0525 18.1623Z" fill="#2C2B27"/>
</g>
<defs>
<clipPath id="clip0_719_1233">
<rect width="128" height="128" fill="white"/>
</clipPath>
</defs>
</svg>
